<svg xmlns="http://www.w3.org/2000/svg" width="240" height="240" viewBox="0 0 240 240" fill="none">
  <g stroke="#65845b" stroke-width="2" stroke-linecap="round" stroke-linejoin="round" fill="none">
    <!-- Big star (top-left) -->
    <g transform="translate(45 50)">
      <path d="M 0 -22 L 6 -7 L 22 -5 L 10 5 L 14 22 L 0 13 L -14 22 L -10 5 L -22 -5 L -6 -7 Z"/>
    </g>
    <!-- Sparkle (top-right) -->
    <g transform="translate(175 45)">
      <path d="M 0 -16 L 3 -3 L 16 0 L 3 3 L 0 16 L -3 3 L -16 0 L -3 -3 Z"/>
      <line x1="-22" y1="-22" x2="-14" y2="-14"/>
      <line x1="22" y1="22" x2="14" y2="14"/>
      <line x1="-22" y1="22" x2="-14" y2="14"/>
      <line x1="22" y1="-22" x2="14" y2="-14"/>
    </g>
    <!-- Concentric burst (middle-left) -->
    <g transform="translate(40 130)">
      <circle cx="0" cy="0" r="8"/>
      <circle cx="0" cy="0" r="14"/>
      <line x1="0" y1="-20" x2="0" y2="-18"/>
      <line x1="0" y1="18" x2="0" y2="20"/>
      <line x1="-20" y1="0" x2="-18" y2="0"/>
      <line x1="18" y1="0" x2="20" y2="0"/>
    </g>
    <!-- Crown (center) -->
    <g transform="translate(120 120)">
      <path d="M -18 6 L -14 -10 L -6 4 L 0 -14 L 6 4 L 14 -10 L 18 6 Z"/>
      <line x1="-18" y1="10" x2="18" y2="10"/>
      <circle cx="-14" cy="-10" r="2" fill="#65845b" stroke="none"/>
      <circle cx="0" cy="-14" r="2" fill="#65845b" stroke="none"/>
      <circle cx="14" cy="-10" r="2" fill="#65845b" stroke="none"/>
    </g>
    <!-- Star (middle-right) -->
    <g transform="translate(200 120)">
      <path d="M 0 -14 L 4 -4 L 14 -3 L 6 3 L 9 14 L 0 8 L -9 14 L -6 3 L -14 -3 L -4 -4 Z"/>
    </g>
    <!-- Big star (bottom-left) -->
    <g transform="translate(55 200)">
      <path d="M 0 -18 L 5 -5 L 18 -4 L 8 4 L 11 18 L 0 11 L -11 18 L -8 4 L -18 -4 L -5 -5 Z"/>
    </g>
    <!-- Sparkle (bottom-center) -->
    <g transform="translate(130 200)">
      <path d="M 0 -10 L 2 -2 L 10 0 L 2 2 L 0 10 L -2 2 L -10 0 L -2 -2 Z"/>
      <line x1="-14" y1="-14" x2="-10" y2="-10"/>
      <line x1="14" y1="14" x2="10" y2="10"/>
    </g>
    <!-- Star (bottom-right) -->
    <g transform="translate(200 200)">
      <path d="M 0 -12 L 3.5 -4 L 12 -3 L 5 3 L 7.5 12 L 0 7 L -7.5 12 L -5 3 L -12 -3 L -3.5 -4 Z"/>
    </g>
    <!-- Tiny dots -->
    <circle cx="100" cy="65" r="2" fill="#65845b" stroke="none"/>
    <circle cx="155" cy="90" r="2" fill="#65845b" stroke="none"/>
    <circle cx="80" cy="170" r="2" fill="#65845b" stroke="none"/>
    <circle cx="170" cy="170" r="2" fill="#65845b" stroke="none"/>
  </g>
</svg>
